<?xml version="1.0" encoding="UTF-8"?>
<svg width="24px" height="24px" viewBox="0 0 24 24" version="1.1" xmlns="http://www.w3.org/2000/svg">
    <g stroke="none" stroke-width="1" fill="none" fill-rule="evenodd">
        <path d="M4,14 L4,10 M8,14 L8,10 M16,14 L16,10 M20,14 L20,10" stroke="#000000" stroke-width="2" stroke-linecap="round"/>
        <path d="M6,12 L18,12" stroke="#000000" stroke-width="2" stroke-linecap="round"/>
        <path d="M2,14 L2,10 C2,9.44771525 2.44771525,9 3,9 L5,9 C5.55228475,9 6,9.44771525 6,10 L6,14 C6,14.5522847 5.55228475,15 5,15 L3,15 C2.44771525,15 2,14.5522847 2,14 Z" stroke="#000000" stroke-width="2"/>
        <path d="M18,14 L18,10 C18,9.44771525 18.4477153,9 19,9 L21,9 C21.5522847,9 22,9.44771525 22,10 L22,14 C22,14.5522847 21.5522847,15 21,15 L19,15 C18.4477153,15 18,14.5522847 18,14 Z" stroke="#000000" stroke-width="2"/>
    </g>
</svg>
